HIERARCHY
ROOT Hips
{
	OFFSET 0.000000 0.000000 0.000000
	CHANNELS 6 Xposition Yposition Zposition Zrotation Yrotation Xrotation 
	JOINT LHipJoint
	{
		OFFSET 0.000000 0.000000 0.000000
		CHANNELS 3 Zrotation Yrotation Xrotation
		JOINT LeftUpLeg
		{
			OFFSET 1.363060 -1.794630 0.839290
			CHANNELS 3 Zrotation Yrotation Xrotation
			JOINT LeftLeg
			{
				OFFSET 2.448110 -6.726130 0.000000
				CHANNELS 3 Zrotation Yrotation Xrotation
				JOINT LeftFoot
				{
					OFFSET 2.562200 -7.039590 0.000000
					CHANNELS 3 Zrotation Yrotation Xrotation
					JOINT LeftToeBase
					{
						OFFSET 0.157640 -0.433110 2.322550
						CHANNELS 3 Zrotation Yrotation Xrotation
						End Site
						{
							OFFSET 0.000000 0.000000 0.000000
						}
					}
				}
			}
		}
	}
	JOINT RHipJoint
	{
		OFFSET 0.000000 0.000000 0.000000
		CHANNELS 3 Zrotation Yrotation Xrotation
		JOINT RightUpLeg
		{
			OFFSET -1.305520 -1.794630 0.839290
			CHANNELS 3 Zrotation Yrotation Xrotation
			JOINT RightLeg
			{
				OFFSET -2.542530 -6.985550 0.000000
				CHANNELS 3 Zrotation Yrotation Xrotation
				JOINT RightFoot
				{
					OFFSET -2.568260 -7.056230 0.000000
					CHANNELS 3 Zrotation Yrotation Xrotation
					JOINT RightToeBase
					{
						OFFSET -0.164730 -0.452590 2.363150
						CHANNELS 3 Zrotation Yrotation Xrotation
						End Site
						{
							OFFSET 0.000000 0.000000 0.000000
						}
					}
				}
			}
		}
	}
	JOINT LowerBack
	{
		OFFSET 0.000000 0.000000 0.000000
		CHANNELS 3 Zrotation Yrotation Xrotation
		JOINT Spine
		{
			OFFSET 0.028270 2.035590 -0.193380
			CHANNELS 3 Zrotation Yrotation Xrotation
			JOINT Spine1
			{
				OFFSET 0.056720 2.048850 -0.042750
				CHANNELS 3 Zrotation Yrotation Xrotation
				JOINT Neck
				{
					OFFSET 0.000000 0.000000 0.000000
					CHANNELS 3 Zrotation Yrotation Xrotation
					JOINT Neck1
					{
						OFFSET -0.054170 1.746240 0.172020
						CHANNELS 3 Zrotation Yrotation Xrotation
						JOINT Head
						{
							OFFSET 0.104070 1.761360 -0.123970
							CHANNELS 3 Zrotation Yrotation Xrotation
							End Site
							{
								OFFSET 0.000000 0.000000 0.000000
							}
						}
					}
				}
				JOINT LeftShoulder
				{
					OFFSET 0.000000 0.000000 0.000000
					CHANNELS 3 Zrotation Yrotation Xrotation
					JOINT LeftArm
					{
						OFFSET 3.362410 1.200890 -0.311210
						CHANNELS 3 Zrotation Yrotation Xrotation
						JOINT LeftForeArm
						{
							OFFSET 4.983000 -0.000000 -0.000000
							CHANNELS 3 Zrotation Yrotation Xrotation
							JOINT LeftHand
							{
								OFFSET 3.483560 -0.000000 -0.000000
								CHANNELS 3 Zrotation Yrotation Xrotation
								JOINT LeftFingerBase
								{
									OFFSET 0.000000 0.000000 0.000000
									CHANNELS 3 Zrotation Yrotation Xrotation
									JOINT LeftHandIndex1
									{
										OFFSET 0.715260 -0.000000 -0.000000
										CHANNELS 3 Zrotation Yrotation Xrotation
										End Site
										{
											OFFSET 0.000000 0.000000 0.000000
										}
									}
								}
								JOINT LThumb
								{
									OFFSET 0.000000 0.000000 0.000000
									CHANNELS 3 Zrotation Yrotation Xrotation
									End Site
									{
										OFFSET 0.000000 0.000000 0.000000
									}
								}
							}
						}
					}
				}
				JOINT RightShoulder
				{
					OFFSET 0.000000 0.000000 0.000000
					CHANNELS 3 Zrotation Yrotation Xrotation
					JOINT RightArm
					{
						OFFSET -3.136600 1.374050 -0.404650
						CHANNELS 3 Zrotation Yrotation Xrotation
						JOINT RightForeArm
						{
							OFFSET -5.241900 -0.000000 -0.000000
							CHANNELS 3 Zrotation Yrotation Xrotation
							JOINT RightHand
							{
								OFFSET -3.444170 -0.000000 -0.000000
								CHANNELS 3 Zrotation Yrotation Xrotation
								JOINT RightFingerBase
								{
									OFFSET 0.000000 0.000000 0.000000
									CHANNELS 3 Zrotation Yrotation Xrotation
									JOINT RightHandIndex1
									{
										OFFSET -0.622530 -0.000000 -0.000000
										CHANNELS 3 Zrotation Yrotation Xrotation
										End Site
										{
											OFFSET 0.000000 0.000000 0.000000
										}
									}
								}
								JOINT RThumb
								{
									OFFSET 0.000000 0.000000 0.000000
									CHANNELS 3 Zrotation Yrotation Xrotation
									End Site
									{
										OFFSET 0.000000 0.000000 0.000000
									}
								}
							}
						}
					}
				}
			}
		}
	}
}
MOTION
Frames: 7
Frame Time: 0.008333
9.530581 17.868237 33.375810 -178.532866 0.549170 -151.193453 9.205962 1.154409 -1.952942 -23.138498 -17.689791 -18.849811 -1.426299 3.854315 8.062732 0.894212 -0.326252 -17.656946 3.415400 -11.338900 -33.431400 -13.534244 -2.927253 -1.093440 30.330778 18.775074 -19.919276 1.398142 -4.510341 9.269376 -1.742616 -0.938852 -27.252691 -1.657800 8.113600 -23.059600 -0.625599 -0.232634 -26.546615 1.651097 -0.380333 -5.897999 -0.860990 -0.122280 12.297730 -10.815388 -0.187156 -0.616596 12.459622 -2.719218 -0.921557 2.893500 -1.388400 -3.532800 15.803353 -2.699998 0.364777 -106.613322 -5.896130 21.025753 12.301726 -14.038760 -1.991117 -1.549383 1.245549 6.824399 19.252233 -13.214630 -5.359000 -7.125000 0.000000 0.000000 -4.446000 14.858400 3.167000 -11.094279 -1.094500 -0.321635 99.782827 -0.213734 9.740357 -12.527492 22.489752 -3.327964 0.817697 4.077284 2.207289 -12.106040 -51.060441 10.524200 7.125000 0.000000 0.000000 74.861300 -76.480100 -61.056500 
9.532990 17.871084 33.375482 -178.552945 0.511564 -151.203359 9.207481 1.160995 -1.965437 -23.192327 -17.355553 -19.036027 -1.402744 3.914897 8.220199 0.835573 -0.655604 -17.383458 3.381100 -11.287900 -33.257000 -13.537945 -2.920988 -1.081087 30.296553 18.892918 -19.862584 1.402855 -4.490271 9.218797 -1.749449 -0.991444 -27.317967 -1.445300 7.600000 -21.505600 -0.683126 -0.251674 -26.460815 1.655319 -0.383811 -5.915993 -0.799235 -0.121651 12.197885 -10.849522 -0.142868 -0.500540 12.492804 -2.685953 -1.005984 2.922600 -1.376500 -3.588800 15.798839 -2.727772 0.363191 -106.444063 -5.998484 21.202235 12.270597 -13.980044 -1.980836 -1.453273 1.118300 7.458140 18.448646 -11.990448 -4.636200 -7.125000 0.000000 0.000000 -5.016500 16.364700 3.413100 -11.092281 -1.089834 -0.321937 99.751290 -0.283381 9.754655 -12.538769 22.505421 -3.334212 0.813190 4.086325 2.096615 -12.170177 -51.175193 10.595400 7.125000 0.000000 0.000000 75.356000 -76.522400 -61.577100 
9.534084 17.872070 33.371431 -178.586567 0.492512 -151.283608 9.201526 1.174710 -1.957453 -23.263525 -17.278423 -18.949529 -1.399019 3.894302 8.192221 0.823976 -0.708956 -17.296437 3.350900 -11.242500 -33.102100 -13.530144 -2.935542 -1.089336 30.317520 18.770081 -19.775639 1.399255 -4.476245 9.220700 -1.756140 -0.952628 -27.327152 -1.513300 7.768700 -22.013700 -0.728240 -0.257309 -26.312295 1.659934 -0.375618 -5.938761 -0.755291 -0.110424 12.054561 -10.880088 -0.105783 -0.316578 12.516817 -2.676663 -1.121608 2.950900 -1.379200 -3.671000 15.788253 -2.743796 0.363437 -106.443187 -5.953709 21.776253 12.198675 -13.840917 -1.947993 -1.522691 1.094455 6.189982 18.715238 -12.050049 -4.735800 -7.125000 0.000000 0.000000 -4.802700 16.272800 3.276200 -11.091644 -1.099250 -0.322480 99.707361 -0.448399 9.760097 -12.562548 22.536872 -3.344552 0.807784 4.086975 2.000391 -12.185185 -51.146514 10.605400 7.125000 0.000000 0.000000 75.229900 -76.524500 -61.458400 
9.534413 17.871632 33.367160 -178.563153 0.468872 -151.355573 9.192787 1.187654 -1.957683 -23.279431 -17.111088 -18.923923 -1.389476 3.907172 8.252321 0.805037 -0.874523 -17.277992 3.532000 -11.510200 -34.020500 -13.523722 -2.947952 -1.096173 30.393593 18.677003 -19.686676 1.393119 -4.474676 9.251559 -1.763507 -0.847865 -27.324486 -1.500400 7.737000 -21.918200 -0.698057 -0.249191 -26.215655 1.660594 -0.378602 -5.939768 -0.764228 -0.110165 12.008614 -10.845855 -0.090327 -0.241178 12.516633 -2.665947 -1.203877 2.950800 -1.378600 -3.720300 15.792520 -2.755042 0.364691 -106.391656 -5.974227 21.353530 12.230791 -13.910123 -1.966292 -1.422036 1.071998 7.477146 18.124523 -11.586771 -4.393000 -7.125000 0.000000 0.000000 -5.254200 16.861500 3.519300 -11.093504 -1.102289 -0.320286 99.716303 -0.506594 9.718544 -12.560177 22.535877 -3.344182 0.809814 4.085913 2.010063 -12.205925 -51.138157 10.622700 7.125000 0.000000 0.000000 75.186200 -76.531500 -61.424300 
9.536165 17.871303 33.366722 -178.490386 0.468315 -151.443382 9.193260 1.194788 -1.940262 -23.191177 -17.133182 -18.799392 -1.395932 3.869174 8.187350 0.821813 -0.758758 -17.306324 3.456300 -11.399400 -33.639100 -13.527710 -2.944117 -1.060788 30.497911 18.853925 -19.614929 1.397586 -4.514918 9.357142 -1.753854 -1.081373 -27.315458 -1.577500 7.924200 -22.484100 -0.654248 -0.235935 -26.060586 1.642114 -0.392527 -6.099480 -0.724823 -0.128228 12.181403 -10.829331 -0.093384 -0.327126 12.506241 -2.647938 -1.266667 2.940900 -1.370400 -3.731200 15.793250 -2.723455 0.344354 -106.332569 -5.863639 21.712998 12.269273 -13.989310 -1.986185 -1.462395 1.098115 7.185789 18.431955 -11.928448 -4.605800 -7.125000 0.000000 0.000000 -5.024300 16.445800 3.409600 -11.082594 -1.140448 -0.344671 99.745744 -0.442936 9.671959 -12.540837 22.508911 -3.334033 0.815541 4.089053 2.093294 -12.232964 -51.175059 10.650200 7.125000 0.000000 0.000000 75.354500 -76.547100 -61.603000 
9.538902 17.873603 33.368693 -178.388352 0.496506 -151.433792 9.240268 1.203941 -1.957893 -23.081869 -17.068975 -18.878626 -1.393272 3.903001 8.272356 0.821254 -0.751495 -17.299454 3.314100 -11.187000 -32.913000 -13.671651 -2.977196 -1.024011 30.761727 19.136808 -19.720429 1.376331 -4.650471 9.613812 -1.152041 -2.993496 -22.832572 -2.840200 10.431800 -30.386700 -0.603878 -0.218523 -25.958152 1.653043 -0.417734 -6.100999 -0.682704 -0.140319 12.124303 -10.815911 -0.096966 -0.382030 12.501943 -2.627579 -1.344876 2.937700 -1.359700 -3.743600 15.812072 -2.698244 0.340532 -106.298638 -5.625404 22.949238 12.283524 -14.015311 -1.999638 -1.596631 1.173857 5.153580 19.187305 -13.145676 -5.307800 -7.125000 0.000000 0.000000 -4.480000 14.967000 3.180900 -11.081173 -1.152080 -0.349478 99.755050 -0.409009 9.668171 -12.528254 22.486940 -3.329115 0.825383 4.090690 2.186894 -12.274649 -51.218783 10.693200 7.125000 0.000000 0.000000 75.540000 -76.570000 -61.806300 
9.540982 17.875902 33.368365 -178.368700 0.541751 -151.370413 9.245482 1.194139 -1.959034 -22.995394 -17.181202 -18.924558 -1.400309 3.911183 8.272363 0.839716 -0.613063 -17.351830 3.406600 -11.325800 -33.386600 -13.682156 -2.968398 -1.016146 30.751473 19.199878 -19.858321 1.381572 -4.694863 9.684636 -1.133243 -3.216416 -22.745231 -3.245700 11.082600 -32.558900 -0.623002 -0.230842 -25.981371 1.659619 -0.432867 -6.100828 -0.642675 -0.149530 12.137942 -10.801272 -0.074014 -0.461733 12.464191 -2.574255 -1.330376 2.912800 -1.331000 -3.721700 15.826430 -2.687870 0.334136 -106.259283 -5.590552 22.998252 12.385271 -14.170583 -2.033742 -1.584881 1.013667 6.032709 19.212607 -11.600133 -4.676400 -7.125000 0.000000 0.000000 -4.405300 16.788000 2.954000 -11.076891 -1.145054 -0.348806 99.748079 -0.372555 9.643225 -12.506563 22.455294 -3.319541 0.834880 4.089946 2.286354 -12.310893 -51.209414 10.724200 7.125000 0.000000 0.000000 75.496400 -76.583300 -61.779100 
